<svg xmlns="http://www.w3.org/2000/svg" viewBox="0 0 900 1200" role="img" aria-label="Nutrition consultation portrait illustration">
  <defs>
    <linearGradient id="bg2" x1="0" y1="0" x2="1" y2="1">
      <stop offset="0%" stop-color="#fbf8f3"/>
      <stop offset="100%" stop-color="#efeae1"/>
    </linearGradient>
    <linearGradient id="leaf" x1="0" y1="0" x2="1" y2="1">
      <stop offset="0%" stop-color="#8a9e7e"/>
      <stop offset="100%" stop-color="#d4a8a0"/>
    </linearGradient>
  </defs>
  <rect width="900" height="1200" rx="44" fill="url(#bg2)"/>
  <path d="M55 250c110-95 210-150 315-150 88 0 170 26 240 78 72 52 123 123 180 246" fill="none" stroke="#8a9e7e" stroke-width="26" opacity="0.18" stroke-linecap="round"/>
  <path d="M820 120c-68 82-116 165-144 249" fill="none" stroke="#d4a8a0" stroke-width="26" opacity="0.2" stroke-linecap="round"/>
  <circle cx="450" cy="480" r="160" fill="#f6d7ca"/>
  <path d="M292 505c16-149 96-244 158-276 36-19 104-18 141 0 64 31 142 129 159 276-30-31-78-48-126-48-54 0-86 14-118 14-33 0-67-14-120-14-48 0-96 17-94 48Z" fill="#3d3d3d" opacity="0.9"/>
  <path d="M365 505c27 18 58 28 85 28 27 0 60-10 85-28" fill="none" stroke="#3d3d3d" stroke-width="13" stroke-linecap="round" opacity="0.45"/>
  <circle cx="403" cy="520" r="11" fill="#3d3d3d" opacity="0.45"/>
  <circle cx="497" cy="520" r="11" fill="#3d3d3d" opacity="0.45"/>
  <path d="M430 565c15 10 38 10 50 0" fill="none" stroke="#3d3d3d" stroke-width="10" stroke-linecap="round" opacity="0.42"/>
  <path d="M275 940c52-164 127-250 176-284 73-51 166-49 234 0 56 40 116 121 167 284" fill="url(#leaf)" opacity="0.3"/>
  <circle cx="155" cy="760" r="90" fill="#c9a84c" opacity="0.12"/>
  <circle cx="742" cy="880" r="126" fill="#8a9e7e" opacity="0.1"/>
  <text x="50%" y="1130" text-anchor="middle" font-family="Poppins, Arial, sans-serif" font-size="34" fill="#6b6b6b" opacity="0.7">Nutrition consultation portrait</text>
</svg>