<svg xmlns="http://www.w3.org/2000/svg" viewBox="0 0 900 1200" role="img" aria-label="Wellness consultation portrait illustration">
  <defs>
    <linearGradient id="bg" x1="0" y1="0" x2="1" y2="1">
      <stop offset="0%" stop-color="#faf7f2"/>
      <stop offset="100%" stop-color="#f0ede6"/>
    </linearGradient>
    <linearGradient id="accent" x1="0" y1="0" x2="1" y2="1">
      <stop offset="0%" stop-color="#d4a8a0"/>
      <stop offset="100%" stop-color="#8a9e7e"/>
    </linearGradient>
  </defs>
  <rect width="900" height="1200" rx="44" fill="url(#bg)"/>
  <circle cx="190" cy="180" r="170" fill="#8a9e7e" opacity="0.14"/>
  <circle cx="760" cy="220" r="220" fill="#d4a8a0" opacity="0.18"/>
  <circle cx="740" cy="980" r="230" fill="#c9a84c" opacity="0.11"/>
  <path d="M90 1080c120-150 210-220 330-220s210 70 330 220" fill="#ffffff" opacity="0.72"/>
  <path d="M250 1030c30-220 120-370 200-430 70-52 160-55 225 0 80 67 150 215 184 430" fill="#ffffff" opacity="0.86"/>
  <ellipse cx="457" cy="520" rx="148" ry="170" fill="#f8d9ce"/>
  <path d="M313 520c20-160 85-245 145-270 40-16 95-16 137 0 60 23 126 107 149 270-20-20-72-43-126-45-43-1-74 8-104 8-31 0-66-10-108-8-54 2-106 25-93 45Z" fill="#3d3d3d" opacity="0.88"/>
  <path d="M360 490c28 18 57 28 98 28 42 0 75-10 104-28" fill="none" stroke="#3d3d3d" stroke-width="14" stroke-linecap="round" opacity="0.55"/>
  <circle cx="406" cy="510" r="11" fill="#3d3d3d" opacity="0.5"/>
  <circle cx="510" cy="510" r="11" fill="#3d3d3d" opacity="0.5"/>
  <path d="M430 560c18 15 42 15 60 0" fill="none" stroke="#3d3d3d" stroke-width="11" stroke-linecap="round" opacity="0.45"/>
  <path d="M300 905c45-140 100-210 160-252 75-52 175-52 245 0 58 42 111 116 160 252" fill="url(#accent)" opacity="0.28"/>
  <path d="M165 280c58 24 86 78 96 122" fill="none" stroke="#8a9e7e" stroke-width="18" stroke-linecap="round" opacity="0.5"/>
  <path d="M750 300c-58 32-84 85-93 129" fill="none" stroke="#d4a8a0" stroke-width="18" stroke-linecap="round" opacity="0.55"/>
  <text x="50%" y="1130" text-anchor="middle" font-family="Poppins, Arial, sans-serif" font-size="34" fill="#6b6b6b" opacity="0.7">Wellness consultation portrait</text>
</svg>